<?xml version="1.0" encoding="utf-8"?>
<!-- Generator: Adobe Illustrator 16.0.0, SVG Export Plug-In . SVG Version: 6.00 Build 0)  -->
<!DOCTYPE svg PUBLIC "-//W3C//DTD SVG 1.1//EN" "http://www.w3.org/Graphics/SVG/1.1/DTD/svg11.dtd">
<svg version="1.1" id="Layer_1" xmlns="http://www.w3.org/2000/svg" xmlns:xlink="http://www.w3.org/1999/xlink" x="0px" y="0px"
	 width="648px" height="168px" viewBox="0 0 648 168" enable-background="new 0 0 648 168" xml:space="preserve">
<g>
	<circle fill="#FFDC2D" cx="73.884" cy="96.85" r="44.273"/>
	<g>
		<path fill="#003767" d="M79.805,119.742c-15.227,0-25.492-10.947-25.492-26.094c0-0.49,0.021-0.982,0.04-1.474h49.187h0.316h0.477
			c0,0-0.373-7.63-3.26-13.076C96.201,68.947,86.195,63.82,74.189,63.82c-17.91,0-30.759,15.436-30.759,32.729
			c0,19.432,11.737,32.693,31.253,32.693c14.783,0,24.774-9.5,29.344-23.035l-2.461-0.76
			C97.937,114.105,89.18,119.742,79.805,119.742z M54.614,88.74c0-0.002,0-0.005,0.001-0.008c0.121-1.099,0.264-2.199,0.43-3.305
			h0.085c0.604-2.858,1.685-5.856,3.355-8.952c0.024-0.044,0.048-0.087,0.071-0.13c0.131-0.242,0.248-0.481,0.387-0.725
			c0.016-0.01,0.027-0.018,0.041-0.027c2.804-4.842,6.881-8.461,13.133-8.693c5.809,0.033,18.906,2.342,18.906,22.502H54.54
			C54.561,89.183,54.59,88.961,54.614,88.74z"/>
	</g>
	<g>
		<path fill="#003767" d="M102.354,33.164h35.182v2.938c-3.486,0-10.184,0-10.184,5.027c0,1.818,9.219,16.758,10.768,19.543
			l11.578,19.699c4.059-7.414,22.068-31.996,22.068-38.973c0-4.605-5.586-5.023-8.953-5.314v-2.932h22.922v2.932
			c-4.34,0.975-6.162,2.938-8.395,6.428l-26.104,41.772v34.468c0,7.148,5.045,7.833,10.898,7.833v2.938h-35.324v-2.938
			c5.301,0,10.324-0.685,10.324-7.833l-0.025-32.522l-22.188-38.678c-2.936-4.604-6.15-11.45-12.568-11.45V33.164z"/>
		<path fill="#003767" d="M187.957,71.703c0-3.07-0.975-4.889-4.338-4.889h-2.375v-2.932l27.084-0.012v2.932h-2.781
			c-4.602,0-5.877,3.078-5.863,7.27l0.006,36.295c0,16.49,13.818,18.022,17.605,18.022c11.713,0,18.699-6.573,18.699-18.726
			L235.982,72.8c0-4.471-2.23-5.997-6.568-5.997h-3.059v-2.932h20.658v2.932h-3.338c-4.34,0-4.756,2.096-4.756,6.143l0.023,37.701
			c0,14.393-11.049,20.391-24.309,20.391c-12.982,0-26.668-5.852-26.668-20.796L187.957,71.703z"/>
		<path fill="#003767" d="M263.945,73.793c-0.006-6.161-2.807-6.99-7.549-6.99v-2.932l25.986-0.02v2.938
			c-3.781,0-6.717,0-6.717,6.276l0.016,45.395c0,7.27,2.643,8.365,13.143,8.365c14.656,0,17.299-4.033,25.125-18.711h2.223
			l-5.02,21.383l-54.744,0.013v-2.944c4.045,0,7.541,0,7.541-6.979L263.945,73.793z"/>
		<path fill="#003767" d="M380.57,128.088h-2.26l-2.078-3.635c-7.385,3.762-12.975,6.561-21.371,6.561
			c-17.586,0.01-32.965-11.461-32.965-33.365c0-25.419,18.01-35.34,34.352-35.34c9.621,0,16.471,4.615,19.41,6.697l2.088-3.768
			h2.244l0.562,20.941h-2.242c-2.779-11.018-8.936-21.219-21.637-21.219c-15.928,0.012-22.475,14.102-22.475,32.123
			c0,28.071,15.641,31.275,20.385,31.275c15.078,0,21.51-10.746,23.727-21.928h2.242L380.57,128.088z"/>
		<path fill="#003767" d="M404.254,73.763c0-6.997-4.182-6.997-9.059-6.997V63.84h29.578v2.926c-6.674,0-8.777,0-8.777,6.997v21.062
			h30.854v-21.08c0-6.99-2.084-6.99-8.803-6.99v-2.926h29.623v2.926c-4.91,0-9.082,0-9.082,6.99v45.795
			c0,6.99,3.635,6.99,9.094,6.99v2.933h-29.621v-2.933c5.051,0,8.799,0,8.799-6.99l-0.01-21.783l-30.854,0.023v21.773
			c0,6.977,3.775,6.977,8.805,6.977v2.943h-29.605v-2.931c5.447-0.013,9.08-0.013,9.08-6.989L404.254,73.763z"/>
		<path fill="#003767" d="M489.492,95.66c0,15.508,3.91,32.688,20.678,32.688c20.68-0.012,20.68-24.314,20.68-30.743
			c-0.012-15.487-3.93-32.68-20.691-32.655C489.482,64.949,489.492,89.24,489.492,95.66 M510.17,130.988
			c-18.008,0-32.955-13.957-32.955-34.613c0-19.42,11.855-34.092,32.943-34.092c18.021-0.013,32.959,13.969,32.982,34.625
			C543.141,116.322,531.281,130.988,510.17,130.988"/>
		<path fill="#003767" d="M615.24,130.14h-2.234L563.564,74.98v44.123c0,7.414,3.9,7.414,8.65,7.414v2.92l-20.525,0.014v-2.934
			c5.154,0,8.521,0,8.521-7.547l-0.01-47.346l-2.936-3.067c-1.402-1.526-3.213-1.815-5.576-1.815v-2.934l17.031-0.018l43.184,48.467
			l-0.027-37.139c0-8.391-3.773-8.391-8.533-8.391v-2.938h20.115v2.938c-5.566,0-8.244,0-8.244,8.252L615.24,130.14z"/>
	</g>
</g>
</svg>
